<?xml version="1.0" encoding="UTF-8" standalone="no"?>
<svg
   xmlns:dc="http://purl.org/dc/elements/1.1/"
   xmlns:cc="http://creativecommons.org/ns#"
   xmlns:rdf="http://www.w3.org/1999/02/22-rdf-syntax-ns#"
   xmlns:svg="http://www.w3.org/2000/svg"
   xmlns="http://www.w3.org/2000/svg"
   xmlns:sodipodi="http://sodipodi.sourceforge.net/DTD/sodipodi-0.dtd"
   xmlns:inkscape="http://www.inkscape.org/namespaces/inkscape"
   id="svg821"
   version="1.1"
   viewBox="0 0 81.082283 10.216445"
   height="10.216445mm"
   width="81.082283mm"
   sodipodi:docname="logo.svg"
   inkscape:export-filename="/home/nicolai/git/NicolaiRuckel/nicolairuckel.com/nicolairuckel.com/themes/nicolai/static/svg/logo.png"
   inkscape:export-xdpi="317.89999"
   inkscape:export-ydpi="317.89999"
   inkscape:version="0.92.4 5da689c313, 2019-01-14">
  <sodipodi:namedview
     pagecolor="#ffffff"
     bordercolor="#666666"
     borderopacity="1"
     objecttolerance="10"
     gridtolerance="10"
     guidetolerance="10"
     inkscape:pageopacity="0"
     inkscape:pageshadow="2"
     inkscape:window-width="1916"
     inkscape:window-height="1027"
     id="namedview886"
     showgrid="false"
     inkscape:pagecheckerboard="true"
     inkscape:zoom="3.0967256"
     inkscape:cx="152.41906"
     inkscape:cy="19.306668"
     inkscape:window-x="1920"
     inkscape:window-y="26"
     inkscape:window-maximized="0"
     inkscape:current-layer="svg821" />
  <defs
     id="defs815" />
  <metadata
     id="metadata818">
    <rdf:RDF>
      <cc:Work
         rdf:about="">
        <dc:format>image/svg+xml</dc:format>
        <dc:type
           rdf:resource="http://purl.org/dc/dcmitype/StillImage" />
        <dc:title></dc:title>
      </cc:Work>
    </rdf:RDF>
  </metadata>
  <g
     transform="translate(-21.302886,-53.935333)"
     id="layer1">
    <g
       aria-label="Nicolai Ruckel"
       transform="scale(0.26458333)"
       style="font-style:normal;font-variant:normal;font-weight:normal;font-stretch:normal;font-size:10.66666698px;line-height:1.25;font-family:liberation;-inkscape-font-specification:liberation;letter-spacing:0px;word-spacing:0px;fill:#000000;fill-opacity:1;stroke:none"
       id="flowRoot1366">
      <path
         d="m 80.514844,241.82342 h 4.213334 v -18.4 c 0,-3.62667 -0.320001,-7.41334 -0.586667,-10.93334 h 0.213333 c 1.173334,2.56 2.453334,5.17334 3.786667,7.52 l 12.479999,21.81334 h 4.8 v -34.98667 h -4.21333 v 18.24 c 0,3.62667 0.32,7.46667 0.58666,11.09333 h -0.21333 c -1.22667,-2.56 -2.453332,-5.17333 -3.786665,-7.52 L 85.314844,206.83675 h -4.8 z"
         style="font-style:normal;font-variant:normal;font-weight:normal;font-stretch:normal;font-size:53.33333588px;font-family:'Source Sans Pro';-inkscape-font-specification:'Source Sans Pro';fill:#ffffff"
         id="path928" />
      <path
         d="m 114.54151,241.82342 h 4.42667 v -25.92 h -4.42667 z m 2.24,-31.25334 c 1.70667,0 2.93333,-1.12 2.93333,-2.88 0,-1.70667 -1.22666,-2.88 -2.93333,-2.88 -1.70667,0 -2.93334,1.17333 -2.93334,2.88 0,1.76 1.22667,2.88 2.93334,2.88 z"
         style="font-style:normal;font-variant:normal;font-weight:normal;font-stretch:normal;font-size:53.33333588px;font-family:'Source Sans Pro';-inkscape-font-specification:'Source Sans Pro';fill:#ffffff"
         id="path930" />
      <path
         d="m 137.95483,242.46342 c 3.09333,0 6.02667,-1.17334 8.37333,-3.30667 l -1.92,-2.82667 c -1.54666,1.38667 -3.68,2.45334 -6.08,2.45334 -4.74666,0 -7.94666,-3.94667 -7.94666,-9.86667 0,-5.97333 3.41333,-9.97333 8.10666,-9.97333 2.08,0 3.73334,0.8 5.17334,2.13333 l 2.18666,-2.77333 c -1.81333,-1.70667 -4.16,-3.04001 -7.57333,-3.04001 -6.66667,0 -12.48,4.96001 -12.48,13.65334 0,8.58667 5.28,13.54667 12.16,13.54667 z"
         style="font-style:normal;font-variant:normal;font-weight:normal;font-stretch:normal;font-size:53.33333588px;font-family:'Source Sans Pro';-inkscape-font-specification:'Source Sans Pro';fill:#ffffff"
         id="path932" />
      <path
         d="m 160.9947,242.46342 c 6.34667,0 12.05333,-4.96 12.05333,-13.54667 0,-8.69333 -5.70666,-13.65334 -12.05333,-13.65334 -6.34667,0 -12,4.96001 -12,13.65334 0,8.58667 5.65333,13.54667 12,13.54667 z m 0,-3.68 c -4.42667,0 -7.41333,-3.94667 -7.41333,-9.86667 0,-5.97333 2.98666,-9.97333 7.41333,-9.97333 4.48,0 7.46667,4 7.46667,9.97333 0,5.92 -2.98667,9.86667 -7.46667,9.86667 z"
         style="font-style:normal;font-variant:normal;font-weight:normal;font-stretch:normal;font-size:53.33333588px;font-family:'Source Sans Pro';-inkscape-font-specification:'Source Sans Pro';fill:#ffffff"
         id="path934" />
      <path
         d="m 184.46135,242.46342 c 1.12,0 1.92,-0.16 2.56,-0.48 l -0.58666,-3.30667 c -0.42667,0.10667 -0.64,0.10667 -0.90667,0.10667 -0.69333,0 -1.28,-0.48 -1.28,-1.86667 v -33.06667 h -4.42667 v 32.74667 c 0,3.73333 1.33334,5.86667 4.64,5.86667 z"
         style="font-style:normal;font-variant:normal;font-weight:normal;font-stretch:normal;font-size:53.33333588px;font-family:'Source Sans Pro';-inkscape-font-specification:'Source Sans Pro';fill:#ffffff"
         id="path936" />
      <path
         d="m 199.39465,242.46342 c 3.25333,0 6.08,-1.65334 8.53333,-3.73334 h 0.16 l 0.42667,3.09334 h 3.62667 v -15.94667 c 0,-6.4 -2.72,-10.61334 -9.01334,-10.61334 -4.16,0 -7.78667,1.76001 -10.18667,3.36001 l 1.70667,2.98666 c 2.02667,-1.33333 4.74667,-2.66666 7.73334,-2.66666 4.21333,0 5.28,3.14666 5.33333,6.4 -11.09334,1.22666 -15.89334,4 -15.89334,9.76 0,4.69333 3.25334,7.36 7.57334,7.36 z m 1.22667,-3.62667 c -2.50667,0 -4.48001,-1.12 -4.48001,-4 0,-3.36 2.82667,-5.33333 11.57334,-6.34667 v 7.04 c -2.50667,2.18667 -4.58667,3.30667 -7.09333,3.30667 z"
         style="font-style:normal;font-variant:normal;font-weight:normal;font-stretch:normal;font-size:53.33333588px;font-family:'Source Sans Pro';-inkscape-font-specification:'Source Sans Pro';fill:#ffffff"
         id="path938" />
      <path
         d="m 220.3013,241.82342 h 4.42666 v -25.92 h -4.42666 z m 2.24,-31.25334 c 1.70666,0 2.93333,-1.12 2.93333,-2.88 0,-1.70667 -1.22667,-2.88 -2.93333,-2.88 -1.70667,0 -2.93334,1.17333 -2.93334,2.88 0,1.76 1.22667,2.88 2.93334,2.88 z"
         style="font-style:normal;font-variant:normal;font-weight:normal;font-stretch:normal;font-size:53.33333588px;font-family:'Source Sans Pro';-inkscape-font-specification:'Source Sans Pro';fill:#ffffff"
         id="path940" />
      <path
         d="m 244.56788,241.82342 h 4.48 v -14.77334 h 6.29334 l 8.42666,14.77334 h 5.06667 l -8.90667,-15.25334 c 4.74667,-1.22666 7.84,-4.42666 7.84,-9.86666 0,-7.30667 -5.12,-9.86667 -12.26666,-9.86667 h -10.93334 z m 4.48,-18.4 v -12.96001 h 5.81334 c 5.44,0 8.42666,1.65334 8.42666,6.24001 0,4.48 -2.98666,6.72 -8.42666,6.72 z"
         style="font-style:normal;font-variant:normal;font-weight:normal;font-stretch:normal;font-size:53.33333588px;font-family:'Source Sans Pro';-inkscape-font-specification:'Source Sans Pro';fill:#ffffff"
         id="path942" />
      <path
         d="m 282.11454,242.46342 c 3.57334,0 6.13334,-1.86667 8.53334,-4.69334 h 0.16 l 0.37333,4.05334 h 3.62667 v -25.92 h -4.42667 v 18.34666 c -2.4,3.04 -4.26667,4.37334 -6.88,4.37334 -3.41333,0 -4.90667,-2.08 -4.90667,-6.88 v -15.84 h -4.42666 v 16.42666 c 0,6.61334 2.45333,10.13334 7.94666,10.13334 z"
         style="font-style:normal;font-variant:normal;font-weight:normal;font-stretch:normal;font-size:53.33333588px;font-family:'Source Sans Pro';-inkscape-font-specification:'Source Sans Pro';fill:#ffffff"
         id="path944" />
      <path
         d="m 313.79447,242.46342 c 3.09333,0 6.02667,-1.17334 8.37333,-3.30667 l -1.92,-2.82667 c -1.54666,1.38667 -3.68,2.45334 -6.08,2.45334 -4.74666,0 -7.94666,-3.94667 -7.94666,-9.86667 0,-5.97333 3.41333,-9.97333 8.10666,-9.97333 2.08,0 3.73334,0.8 5.17334,2.13333 l 2.18666,-2.77333 c -1.81333,-1.70667 -4.16,-3.04001 -7.57333,-3.04001 -6.66667,0 -12.48,4.96001 -12.48,13.65334 0,8.58667 5.28,13.54667 12.16,13.54667 z"
         style="font-style:normal;font-variant:normal;font-weight:normal;font-stretch:normal;font-size:53.33333588px;font-family:'Source Sans Pro';-inkscape-font-specification:'Source Sans Pro';fill:#ffffff"
         id="path946" />
      <path
         d="m 327.87445,241.82342 h 4.37333 v -6.82667 l 4.8,-5.6 7.57333,12.42667 h 4.80001 l -9.76001,-15.46667 8.64001,-10.45333 h -4.96001 l -10.93333,13.54666 h -0.16 v -25.6 h -4.37333 z"
         style="font-style:normal;font-variant:normal;font-weight:normal;font-stretch:normal;font-size:53.33333588px;font-family:'Source Sans Pro';-inkscape-font-specification:'Source Sans Pro';fill:#ffffff"
         id="path948" />
      <path
         d="m 363.76765,242.46342 c 3.57333,0 6.34666,-1.06667 8.58666,-2.66667 l -1.54666,-2.82667 c -1.81334,1.22667 -4,1.92 -6.50667,1.92 -4.90667,0 -8.16,-3.52 -8.53333,-8.85333 h 17.44 c 0.16,-0.85333 0.21333,-1.65333 0.21333,-2.61333 0,-7.46667 -3.78667,-12.16001 -10.4,-12.16001 -5.92,0 -11.62667,5.17334 -11.62667,13.60001 0,8.58666 5.44,13.6 12.37334,13.6 z m -8,-15.84 c 0.53333,-4.96 3.73333,-7.84 7.36,-7.84 3.94666,0 6.34666,2.72 6.34666,7.84 z"
         style="font-style:normal;font-variant:normal;font-weight:normal;font-stretch:normal;font-size:53.33333588px;font-family:'Source Sans Pro';-inkscape-font-specification:'Source Sans Pro';fill:#ffffff"
         id="path950" />
      <path
         d="m 384.40756,242.46342 c 1.12,0 1.92,-0.16 2.56,-0.48 l -0.58667,-3.30667 c -0.42666,0.10667 -0.64,0.10667 -0.90666,0.10667 -0.69334,0 -1.28,-0.48 -1.28,-1.86667 v -33.06667 h -4.42667 v 32.74667 c 0,3.73333 1.33333,5.86667 4.64,5.86667 z"
         style="font-style:normal;font-variant:normal;font-weight:normal;font-stretch:normal;font-size:53.33333588px;font-family:'Source Sans Pro';-inkscape-font-specification:'Source Sans Pro';fill:#ffffff"
         id="path952" />
    </g>
  </g>
</svg>
